<svg width="210" height="83" viewBox="0 0 210 83" fill="none" xmlns="http://www.w3.org/2000/svg">
<path d="M44.5359 75.5074C43.1706 75.6708 41.7788 75.7548 40.3671 75.7548C21.2662 75.7548 5.78174 60.2703 5.78174 41.1672C5.78174 22.064 21.2662 6.58398 40.3671 6.58398C41.7788 6.58398 43.1706 6.66794 44.5359 6.83142C31.1282 12.4694 21.6926 25.7402 21.6926 41.1672C21.6926 56.5942 31.1282 69.8672 44.5359 75.5051V75.5074Z" fill="#00CC73"/>
<path d="M74.7666 57.5009H70.1251L79.9186 41.4995L70.0787 25.4539H74.7689L82.4945 38.0068L89.7872 25.56C84.0852 14.3018 72.4028 6.58496 58.9199 6.58496C55.7055 6.58496 52.5949 7.0246 49.6433 7.8398C35.0492 11.8981 24.3345 25.2816 24.3345 41.1659C24.3345 57.0503 35.0492 70.4426 49.6433 74.4965C52.5949 75.3161 55.7077 75.7558 58.9199 75.7558C72.2371 75.7558 83.7957 68.2289 89.5707 57.1939L82.0814 44.9967L74.7689 57.5032L74.7666 57.5009ZM67.9644 28.8561H54.9079V39.5709H66.5859V43.0195H54.9079V54.0523H67.9644V57.5009H50.7259V25.4076H67.9644V28.8561Z" fill="#424AF3"/>
<path d="M93.501 41.1667C93.501 45.2074 92.8073 49.0845 91.5326 52.6856L84.6553 41.5003L91.6872 30.083C92.8625 33.5603 93.501 37.2895 93.501 41.1667Z" fill="#424AF3"/>
<path d="M118.98 52.6065C117.312 53.6338 115.311 54.1441 112.982 54.1441C110.654 54.1441 108.736 53.6249 106.958 52.58C105.182 51.5394 103.788 50.0592 102.776 48.1438C101.764 46.2285 101.256 43.9993 101.256 41.4565C101.256 38.9137 101.764 36.636 102.776 34.7184C103.788 32.803 105.179 31.3272 106.958 30.2823C108.734 29.2417 110.744 28.7181 112.982 28.7181C115.22 28.7181 117.312 29.2395 118.98 30.2823C120.653 31.3272 121.932 32.8096 122.822 34.7427H127.835C126.638 31.6454 124.738 29.255 122.133 27.5693C119.526 25.8859 116.475 25.042 112.982 25.042C110.009 25.042 107.302 25.7489 104.87 27.1562C102.433 28.5679 100.507 30.5209 99.0996 33.0173C97.6879 35.5159 96.9854 38.3305 96.9854 41.4565C96.9854 44.5826 97.6879 47.3861 99.0996 49.867C100.507 52.3524 102.433 54.2921 104.87 55.6839C107.305 57.0802 110.009 57.7761 112.982 57.7761C116.475 57.7761 119.526 56.941 122.133 55.2708C124.738 53.5984 126.638 51.2346 127.835 48.1659H122.822C121.934 50.099 120.653 51.5792 118.98 52.6043V52.6065Z" fill="#424AF3"/>
<path d="M151.785 25.4541V39.5224H135.463V25.4541H131.277V57.5011H135.463V42.971H151.785V57.5011H155.967V25.4541H151.785Z" fill="#424AF3"/>
<path d="M177.575 28.8568V25.4082H160.337V57.5016H177.575V54.053H164.519V43.0201H176.197V39.5715H164.519V28.8568H177.575Z" fill="#424AF3"/>
<path d="M189.55 41.4997L204.08 25.4541H198.791L185.549 40.3067V25.4541H181.362V57.5011H185.549V42.8805L198.742 57.5011H204.215L189.547 41.4997H189.55Z" fill="#424AF3"/>
</svg>
